<svg width="16" height="17" viewBox="0 0 16 17" fill="none" xmlns="http://www.w3.org/2000/svg">
<path d="M13.4586 9.06854L7.541 14.9861C6.89184 15.6353 6.0114 16 5.09335 16C4.1753 16 3.29485 15.6353 2.64569 14.9861C1.99653 14.337 1.63184 13.4565 1.63184 12.5385C1.63184 11.6204 1.99653 10.74 2.64569 10.0908L11.061 1.67557C11.2753 1.46132 11.5298 1.29138 11.8098 1.17547C12.0898 1.05955 12.3899 0.999929 12.693 1C12.9961 1.00007 13.2962 1.05984 13.5761 1.17588C13.8561 1.29193 14.1105 1.46199 14.3248 1.67634C14.539 1.89069 14.7089 2.14515 14.8249 2.42518C14.9408 2.70521 15.0004 3.00533 15.0003 3.3084C15.0002 3.61147 14.9405 3.91156 14.8244 4.19153C14.7084 4.47151 14.5383 4.72589 14.324 4.94014L5.90257 13.3616C5.68409 13.571 5.39208 13.6854 5.08946 13.6816C4.78684 13.6778 4.49784 13.5552 4.28474 13.3403C4.07165 13.1254 3.95152 12.8353 3.95026 12.5327C3.94899 12.2301 4.06668 11.939 4.27797 11.7223L10.2856 5.71474M5.90949 13.3539L5.9018 13.3616" stroke="#C2C2C2" stroke-width="1.5" stroke-linecap="round" stroke-linejoin="round"/>
</svg>
